<svg xmlns="http://www.w3.org/2000/svg" viewBox="0 0 132.85 131.95"><defs><style>.cls-1{fill:#0092db;}.cls-2{fill:#db261d;}.cls-2,.cls-3,.cls-4{fill-rule:evenodd;}.cls-3{fill:#e67817;}.cls-4{fill:#00923e;}</style></defs><title>Asset 6</title><g id="Layer_2" data-name="Layer 2"><g id="Layer_1-2" data-name="Layer 1"><ellipse class="cls-1" cx="108.59" cy="19.95" rx="7.61" ry="27.61" transform="translate(18.8 84.21) rotate(-46)"/><path class="cls-2" d="M4.34,44.23c2.16,41,49.23,83.06,85.22,82.8C69,137,41.27,131.76,21.2,112.38S-5.11,65.12,4.34,44.23Z"/><path class="cls-3" d="M110.35,115.62C103.13,123.1,75.88,108.5,49.49,83S7.56,30.81,14.78,23.33c4.52-4.68,16.91-.7,32,9.19a7.66,7.66,0,0,1-.94-.46C39.78,28.41,34,28.26,31.8,30.55c-5,5.22,5.93,25,25.64,44s39.78,30.23,44.82,25c2.34-2.42,3.26-6.32-.67-13.38C110.89,99.93,114.64,111.18,110.35,115.62Z"/><path class="cls-4" d="M85.23,46.26c13.47,13,27.29,20.54,30.87,16.82s-4.43-17.26-17.89-30.27S70.93,12.28,67.34,16s4.43,17.26,17.89,30.27Zm46,38.49c-6.52,6.75-30.94-6.26-54.55-29.06S39.23,8.93,45.75,2.18,76.69,8.45,100.3,31.25,137.76,78,131.24,84.75Z"/></g></g></svg>