<svg xmlns="http://www.w3.org/2000/svg" viewBox="0 0 351.09 151.34"><defs><style>.cls-1{fill:#0092db;}.cls-2{fill:#db261d;}.cls-2,.cls-3,.cls-4,.cls-5,.cls-6{fill-rule:evenodd;}.cls-3{fill:#e67817;}.cls-4{fill:#00923e;}.cls-5{fill:#373435;}.cls-6{fill:#282929;}</style></defs><title>Asset 5</title><g id="Layer_2" data-name="Layer 2"><g id="Layer_1-2" data-name="Layer 1"><ellipse class="cls-1" cx="123.31" cy="39.34" rx="7.61" ry="27.61" transform="translate(9.35 100.71) rotate(-46)"/><path class="cls-2" d="M19.06,63.61c2.16,41,49.23,83.06,85.22,82.8-20.52,9.94-48.29,4.73-68.35-14.64S9.61,84.51,19.06,63.61Z"/><path class="cls-3" d="M125.06,135c-7.22,7.48-34.47-7.12-60.86-32.61S22.28,50.19,29.5,42.72C34,38,46.4,42,61.51,51.91a7.66,7.66,0,0,1-.94-.46c-6.08-3.64-11.85-3.8-14.06-1.51-5,5.22,5.93,25,25.64,44s39.78,30.23,44.82,25c2.34-2.42,3.26-6.32-.67-13.38C125.6,119.31,129.36,130.56,125.06,135Z"/><path class="cls-4" d="M100,65.64c13.47,13,27.29,20.54,30.87,16.82S126.4,65.2,112.93,52.2,85.64,31.66,82.06,35.37,86.48,52.64,100,65.64Zm46,38.49c-6.52,6.75-30.94-6.26-54.55-29.06S54,28.32,60.47,21.57,91.41,27.83,115,50.63,152.48,97.38,146,104.13Z"/><path class="cls-5" d="M17.85,132l2.3,2.93,1.31-1-2.12-2.69,1.33-1,2.12,2.69,3-2.35,1.37,1.75-7,5.48-3.67-4.67,1.33-1Zm3.28-8.21a4.22,4.22,0,0,1,.81,2.94A3.29,3.29,0,0,1,20.31,129a3.61,3.61,0,0,1-2.71.62,3.5,3.5,0,0,1-2.24-1.69,3,3,0,0,1-.55-2.4,3.33,3.33,0,0,1,1.58-1.93l.63-.41L19.48,127a1.91,1.91,0,0,0,.55-.59,1.34,1.34,0,0,0,.18-.64,1.79,1.79,0,0,0-.11-.67,3.57,3.57,0,0,0-.35-.7,3.15,3.15,0,0,0-.46-.56,3.35,3.35,0,0,0-.53-.43,4.05,4.05,0,0,0-.46-.26L17.9,123l-.12-.19,1.45-.93.41.29a4,4,0,0,1,.46.39,5.71,5.71,0,0,1,1,1.23Zm-4.07,1.77a1.63,1.63,0,0,0-.69.81,1.1,1.1,0,0,0,.19.94,1.25,1.25,0,0,0,.83.61,1.54,1.54,0,0,0,1-.22l-1.37-2.14Zm-.95-10.29-8.25,4.23,1,1.86,2.54-1.3a5.33,5.33,0,0,0,.05.86,2.82,2.82,0,0,0,.3.82,2.46,2.46,0,0,0,.73.86,2.68,2.68,0,0,0,1,.48,3.56,3.56,0,0,0,1.28,0,4.53,4.53,0,0,0,1.45-.49,4.31,4.31,0,0,0,1.95-1.75,2.12,2.12,0,0,0,0-2,2.55,2.55,0,0,0-.32-.49,2.44,2.44,0,0,0-.38-.36,3,3,0,0,0-.46-.28l-.53-.25.62-.32-1-1.86ZM15.42,118a1.92,1.92,0,0,1,.5.32,1.58,1.58,0,0,1,.35.45,1.1,1.1,0,0,1,.05,1.07,2.62,2.62,0,0,1-1.14.92,2.48,2.48,0,0,1-1.48.33,1.31,1.31,0,0,1-1-.77,2.13,2.13,0,0,1-.15-.41,1.72,1.72,0,0,1-.07-.42l2.94-1.5Zm-1.11-7.38a4.22,4.22,0,0,1,.23,3,3.29,3.29,0,0,1-2,1.89,3.61,3.61,0,0,1-2.78.08,3.49,3.49,0,0,1-1.87-2.1,3,3,0,0,1-.08-2.46,3.33,3.33,0,0,1,1.92-1.59l.7-.28,1.68,4.27a1.91,1.91,0,0,0,.65-.47,1.35,1.35,0,0,0,.3-.59,1.8,1.8,0,0,0,0-.68,3.51,3.51,0,0,0-.21-.76,3.16,3.16,0,0,0-.34-.64,3.41,3.41,0,0,0-.44-.52,4.32,4.32,0,0,0-.4-.35l-.35-.24-.08-.21,1.61-.63.35.37a3.9,3.9,0,0,1,.38.48,6.53,6.53,0,0,1,.39.6,6.31,6.31,0,0,1,.37.8Zm-4.33,1a1.63,1.63,0,0,0-.83.66,1.09,1.09,0,0,0,0,1,1.25,1.25,0,0,0,.69.76,1.53,1.53,0,0,0,1.07,0L10,111.55Zm-3-7.48-1.9.54c0,.07,0,.14,0,.22l.06.22a1.87,1.87,0,0,0,.25.52,2.64,2.64,0,0,0,.37.45,3.82,3.82,0,0,0,.43.36l.43.29-.92.26.57,2,6.43-1.83-.57-2-4.3,1.22a6.68,6.68,0,0,1-.41-.61,2.74,2.74,0,0,1-.28-.64c0-.18-.09-.34-.12-.49a1.47,1.47,0,0,1,0-.35l0-.17Zm1.78-5.24-1.37.31.28.81a2.72,2.72,0,0,0,.29.59.9.9,0,0,0,.38.35.83.83,0,0,0,.54,0,.74.74,0,0,0,.58-.39,1.28,1.28,0,0,0,0-.76,1.37,1.37,0,0,0-.25-.51,1.75,1.75,0,0,0-.46-.42Zm1-.23.4.3a2.45,2.45,0,0,1,.38.38,3.06,3.06,0,0,1,.33.48,2.86,2.86,0,0,1,.24.7,2,2,0,0,1-.25,1.56,2.06,2.06,0,0,1-1.33.91,2.19,2.19,0,0,1-1.24,0,2,2,0,0,1-.9-.67A4.45,4.45,0,0,1,6.73,101c-.19-.49-.37-1-.54-1.6h0a.78.78,0,0,0-.65.57,2.73,2.73,0,0,0,.07,1.23,3.3,3.3,0,0,0,.32.81,6.87,6.87,0,0,0,.55.86l0,.17-1.58.36c-.1-.19-.25-.5-.43-.93A8,8,0,0,1,4,101.17a4.32,4.32,0,0,1,0-2.58,2,2,0,0,1,1.54-1.16l4.44-1,.47,2-.69.16ZM9.58,92.8l.26,2.07L.64,96,.38,94l9.2-1.17ZM9.09,78.48,9,80.7l-5.88-.15,3.75,1.71,0,1.52L3,85.29l5.88.15-.05,2.1L0,87.31l.06-2.57,4.43-1.85L.16,80.82l.06-2.57,8.87.22Zm.76-5.09a4.22,4.22,0,0,1-1.26,2.77,3.29,3.29,0,0,1-2.69.68,3.61,3.61,0,0,1-2.47-1.26,3.5,3.5,0,0,1-.64-2.74A3,3,0,0,1,3.9,70.64a3.33,3.33,0,0,1,2.45-.47l.74.09-.58,4.55a1.89,1.89,0,0,0,.8-.1,1.35,1.35,0,0,0,.55-.38,1.79,1.79,0,0,0,.34-.59A3.5,3.5,0,0,0,8.39,73a3.15,3.15,0,0,0,0-.72,3.46,3.46,0,0,0-.13-.67,4.18,4.18,0,0,0-.19-.5c-.07-.16-.13-.28-.19-.38l0-.22,1.71.22.13.49a3.92,3.92,0,0,1,.1.6,6.53,6.53,0,0,1,.05.71,6.42,6.42,0,0,1-.06.88ZM5.59,72.14a1.62,1.62,0,0,0-1,.18,1.09,1.09,0,0,0-.46.84,1.25,1.25,0,0,0,.24,1,1.54,1.54,0,0,0,.94.5l.32-2.52Zm6-8.48-.47,2-.68-.16c.08.16.16.33.24.53a2.92,2.92,0,0,1,.18.51,2.45,2.45,0,0,1,.06.52,2.55,2.55,0,0,1-.07.58,2.12,2.12,0,0,1-1.33,1.56,4.31,4.31,0,0,1-2.61.08,4.5,4.5,0,0,1-1.43-.56,3.54,3.54,0,0,1-1-.86,2.66,2.66,0,0,1-.47-1,2.47,2.47,0,0,1,0-1.13,2.85,2.85,0,0,1,.3-.82,5.43,5.43,0,0,1,.51-.69l-2.78-.64.47-2,9,2.08ZM9.33,65.28l-3.21-.74a1.75,1.75,0,0,0-.22.37,2.23,2.23,0,0,0-.15.41A1.31,1.31,0,0,0,6,66.54a2.48,2.48,0,0,0,1.35.7,2.62,2.62,0,0,0,1.47,0,1.1,1.1,0,0,0,.65-.86,1.56,1.56,0,0,0,0-.57,1.93,1.93,0,0,0-.17-.57Zm3.39-5.12L6.38,58l-.67,2L12,62.14l.67-2ZM5.5,57.66l-.71,2.09-1.54-.52L4,57.14l1.54.52Zm9.06-2A5.2,5.2,0,0,1,13.81,57a3.24,3.24,0,0,1-1,.87,2.94,2.94,0,0,1-1.3.32,3.93,3.93,0,0,1-1.55-.31A4,4,0,0,1,8.53,57a3.1,3.1,0,0,1-.73-1.17,3.29,3.29,0,0,1-.14-1.32A4.93,4.93,0,0,1,9.3,51.26l1.66.65-.1.25-.35.19a2.73,2.73,0,0,0-.39.27,2.68,2.68,0,0,0-.38.4,2.22,2.22,0,0,0-.31.56,1.48,1.48,0,0,0,.06,1.35,2.36,2.36,0,0,0,1.23,1,2.12,2.12,0,0,0,1.57.12,1.63,1.63,0,0,0,.92-1,2.34,2.34,0,0,0,.16-1.23,2.33,2.33,0,0,0-.11-.43L13.12,53l.1-.25,1.66.66c0,.13,0,.28,0,.45a3.54,3.54,0,0,1,0,.51c0,.21-.05.4-.09.58a4.24,4.24,0,0,1-.21.67Zm1.13-7.07-1.25-.64-.3.8a2.69,2.69,0,0,0-.15.64.91.91,0,0,0,.06.51.83.83,0,0,0,.39.37.74.74,0,0,0,.69.07,1.29,1.29,0,0,0,.5-.58,1.35,1.35,0,0,0,.14-.55,1.74,1.74,0,0,0-.08-.62Zm.92.47.63.32,1-1.86-4.06-2.08a2,2,0,0,0-1.92-.1,4.32,4.32,0,0,0-1.66,2,8,8,0,0,0-.53,1.3c-.14.45-.23.77-.27,1l1.44.74.08-.16a6.8,6.8,0,0,1,.13-1,3.32,3.32,0,0,1,.27-.83,2.73,2.73,0,0,1,.74-1,.78.78,0,0,1,.87,0l0,0q-.36.83-.62,1.58a4.44,4.44,0,0,0-.27,1.37,2,2,0,0,0,.26,1.09,2.2,2.2,0,0,0,.94.81,2.06,2.06,0,0,0,1.61.16,2,2,0,0,0,1.2-1,2.88,2.88,0,0,0,.27-.69,3.11,3.11,0,0,0,.06-.58,2.46,2.46,0,0,0,0-.53l-.11-.49ZM20,44.4l-1,1.81-8-4.62,1-1.81,8,4.62Zm5.43-7.31a4.2,4.2,0,0,1-2.91,1.74,4.67,4.67,0,0,1-3.39-1.18,4.73,4.73,0,0,1-1.92-3,4.14,4.14,0,0,1,1-3.27,7.08,7.08,0,0,1,.63-.71,6.61,6.61,0,0,1,.63-.53,6,6,0,0,1,.6-.37l.57-.29,1.66,1.31-.14.18-.52.11a5.33,5.33,0,0,0-.65.2,3.7,3.7,0,0,0-.67.34,2.3,2.3,0,0,0-.59.53,2.47,2.47,0,0,0-.43.79,2.12,2.12,0,0,0-.06.93,2.53,2.53,0,0,0,.38,1,4,4,0,0,0,.94,1,3.82,3.82,0,0,0,1.23.69,2.5,2.5,0,0,0,1.07.1,2.1,2.1,0,0,0,.86-.31,2.55,2.55,0,0,0,.64-.57,2.48,2.48,0,0,0,.41-.75,3.31,3.31,0,0,0,.16-.73,4.22,4.22,0,0,0,0-.64c0-.2,0-.37,0-.52l.13-.16,1.64,1.29-.15.6a5.14,5.14,0,0,1-.22.67,7.56,7.56,0,0,1-.33.73,6.06,6.06,0,0,1-.57.83Zm5.07-5.67a6.4,6.4,0,0,0,.57-.67,6.49,6.49,0,0,0,.38-.6,4,4,0,0,0,.27-.54l.19-.47-1.25-1.19-.15.16c0,.11,0,.25-.07.42a4.33,4.33,0,0,1-.15.51,3.4,3.4,0,0,1-.29.62,3.13,3.13,0,0,1-.44.57,3.49,3.49,0,0,1-.6.51,1.79,1.79,0,0,1-.62.27,1.35,1.35,0,0,1-.67,0,1.9,1.9,0,0,1-.7-.4l3.16-3.32-.54-.52a3.33,3.33,0,0,0-2.25-1.07,3,3,0,0,0-2.2,1.1,3.5,3.5,0,0,0-1.11,2.58,3.61,3.61,0,0,0,1.24,2.49,3.29,3.29,0,0,0,2.56,1,4.22,4.22,0,0,0,2.66-1.48Zm-2.68-3.53a1.63,1.63,0,0,0-.95-.48,1.09,1.09,0,0,0-.87.4,1.25,1.25,0,0,0-.4.95,1.53,1.53,0,0,0,.46,1l1.75-1.84Zm10-3.35L36.3,25.9l-2.17-2.5c-.18-.2-.36-.4-.55-.59a1.78,1.78,0,0,0-.48-.37.66.66,0,0,0-.45,0,1.29,1.29,0,0,0-.48.28,1.57,1.57,0,0,0-.33.41,2.47,2.47,0,0,0-.23.6l3.1,3.58-1.58,1.37-4.38-5.05,1.58-1.37.48.56a5.07,5.07,0,0,1,.31-1.17,2.37,2.37,0,0,1,.65-.89,1.93,1.93,0,0,1,1.61-.54A2.83,2.83,0,0,1,35,21.25l2.85,3.29Zm3.47-2.22a7.26,7.26,0,0,0,.73-.58,5.57,5.57,0,0,0,.51-.53L41.74,20l-.15.1a1.82,1.82,0,0,1-.23.33,1.76,1.76,0,0,1-.32.31,1.27,1.27,0,0,1-.57.26.66.66,0,0,1-.43-.1,1.27,1.27,0,0,1-.35-.33l-.36-.5-1.38-1.94L39.59,17l-.84-1.18L37.11,17,36,15.4l-1.7,1.21,1.11,1.56-.65.46.84,1.18.65-.46,1.81,2.55A2.21,2.21,0,0,0,39.53,23a2.73,2.73,0,0,0,1.82-.65Zm3.52-7.87-.15.09a1.46,1.46,0,0,0-.33.12l-.45.23a2.72,2.72,0,0,0-.55.43,6.44,6.44,0,0,0-.5.55l2.23,3.88-1.81,1L40,15l1.81-1,.48.83c0-.12.1-.28.18-.48a3.81,3.81,0,0,1,.24-.51A2.73,2.73,0,0,1,43,13.3a1.84,1.84,0,0,1,.45-.37l.2-.11.21-.1,1,1.71ZM51,16.73a4.22,4.22,0,0,1-3,.52A3.29,3.29,0,0,1,46,15.42a3.61,3.61,0,0,1-.35-2.76,3.5,3.5,0,0,1,1.9-2.07A3,3,0,0,1,50,10.27,3.33,3.33,0,0,1,51.72,12l.34.67L48,14.79a1.9,1.9,0,0,0,.53.6,1.35,1.35,0,0,0,.62.24,1.79,1.79,0,0,0,.68-.05,3.46,3.46,0,0,0,.73-.28,3.17,3.17,0,0,0,.6-.4,3.38,3.38,0,0,0,.48-.49,4.15,4.15,0,0,0,.31-.44c.09-.15.16-.27.21-.37l.2-.1L53.13,15l-.33.38a4.07,4.07,0,0,1-.44.42,6.58,6.58,0,0,1-.56.44,6.3,6.3,0,0,1-.76.45Zm-1.37-4.22a1.63,1.63,0,0,0-.74-.76,1.1,1.1,0,0,0-1,.1,1.25,1.25,0,0,0-.69.76,1.54,1.54,0,0,0,.11,1.06l2.26-1.16Zm6.26-.62-.27,5-1.18.46-.58-4.66,2-.8Zm14.35-1.64-2.16.5L66.79,5l-.72,4.06-1.48.34L62.17,6.1l1.32,5.73-2,.47-2-8.64L62,3.08l2.9,3.82.92-4.7,2.51-.58,2,8.64Zm5.14-2.39-.18-1.39-.83.2a2.76,2.76,0,0,0-.61.23.9.9,0,0,0-.38.34.83.83,0,0,0-.08.53.74.74,0,0,0,.33.61,1.29,1.29,0,0,0,.76.08,1.36,1.36,0,0,0,.53-.2,1.73,1.73,0,0,0,.47-.41Zm.13,1-.34.37a2.48,2.48,0,0,1-.42.34,3.07,3.07,0,0,1-.51.28,2.86,2.86,0,0,1-.72.17A2,2,0,0,1,72,9.64a2.06,2.06,0,0,1-.77-1.42A2.19,2.19,0,0,1,71.4,7a2,2,0,0,1,.75-.83,4.46,4.46,0,0,1,1.29-.55q.76-.21,1.65-.38v0a.78.78,0,0,0-.5-.71,2.74,2.74,0,0,0-1.23-.06,3.32,3.32,0,0,0-.84.24,6.68,6.68,0,0,0-.91.46l-.18,0-.2-1.61c.2-.08.52-.2,1-.34a8,8,0,0,1,1.37-.3,4.32,4.32,0,0,1,2.57.25,2,2,0,0,1,1,1.65l.57,4.52-2.07.26-.09-.7ZM86,9.15l-2.49.06L81.58,6.36l-.31.44.06,2.47-2.08.05L79,.05,81.09,0l.13,5.19,1.92-2.66,2.47-.06L83.34,5.41,86,9.15Zm6.84.61L90.72,9.6l.06-.74a5.59,5.59,0,0,1-1,.61,2.3,2.3,0,0,1-1.09.15,2,2,0,0,1-1.5-.74A2.77,2.77,0,0,1,86.72,7L87,2.62l2.08.16-.25,3.3c0,.34,0,.63,0,.84a1.67,1.67,0,0,0,.09.56.66.66,0,0,0,.27.34,1.19,1.19,0,0,0,.55.15,1.59,1.59,0,0,0,.53-.07,2.21,2.21,0,0,0,.58-.25l.36-4.72,2.08.16-.51,6.67Zm6.82-3.55-.17,0a1.48,1.48,0,0,0-.33-.13l-.49-.11a2.7,2.7,0,0,0-.7,0,6.46,6.46,0,0,0-.73.1l-.79,4.4L94.36,10l1.18-6.58,2.05.37-.17.94.45-.25a3.77,3.77,0,0,1,.51-.23,2.71,2.71,0,0,1,.56-.14,1.86,1.86,0,0,1,.58,0l.22,0,.22.06-.35,1.95Zm5.82,6.4L108,3.69l-2-.57-.78,2.75a5.41,5.41,0,0,0-.66-.55,2.84,2.84,0,0,0-.8-.34,2.46,2.46,0,0,0-1.13-.06,2.68,2.68,0,0,0-1,.42,3.54,3.54,0,0,0-.91.91,4.53,4.53,0,0,0-.63,1.4,4.31,4.31,0,0,0,0,2.62,2.12,2.12,0,0,0,1.49,1.41,2.58,2.58,0,0,0,.58.1,2.49,2.49,0,0,0,.53,0,3.06,3.06,0,0,0,.52-.15l.54-.22-.19.67,2,.57Zm-1.5-2.34a1.91,1.91,0,0,1-.57.14,1.58,1.58,0,0,1-.57,0,1.1,1.1,0,0,1-.82-.69,2.62,2.62,0,0,1,.1-1.47,2.48,2.48,0,0,1,.77-1.31,1.31,1.31,0,0,1,1.24-.2,2.13,2.13,0,0,1,.4.17,1.75,1.75,0,0,1,.36.23l-.9,3.17Zm5,3.53-2-.67,2.14-6.33,2,.67-2.14,6.33Zm2.51-7.21-2.09-.71.52-1.54,2.09.71-.52,1.54Zm1,8.6.86-2.18-2-.77-.86,2.18Z"/><path class="cls-6" d="M186.47,84.69h11.4a4.22,4.22,0,0,0,1.83-.39c.33-.13.55-.6.79-.89s.09,0,.15-.46c.84-6.52,2.27-13.34,3.44-19.78.27-1.49-.09-2.26,1.7-3a2.14,2.14,0,0,1,1.9.11c1.47.49.63,1.76.57,2.35,0,.36,0,.77,0,1.11s-.2.44-.26.85a9.65,9.65,0,0,1-.09,1.14c-.67,2.19-.81,4.54-1.31,6.8-.07.31-.07.72-.14,1.09s-.18.59-.22.89a8.85,8.85,0,0,1-.13,1.1c-.13.54-.2,1.56-.35,2a15.43,15.43,0,0,0-.32,1.93,5.42,5.42,0,0,0-.22.9,9.8,9.8,0,0,1-.11,1.11c-.12.47-.19.29-.23.9-.12,2-.38.93-.38,3.18a2.87,2.87,0,0,0,.56,1.81,5.28,5.28,0,0,0,1.13,1.22,5.9,5.9,0,0,0,1.57.77c1.42.55,5.36.34,6.88.34a4.4,4.4,0,0,0,2.07-.38c1-.54.89-1.53,1.17-2.48,1-3.3,4.35-24.07,4.47-29a1.74,1.74,0,0,0-.61-1.7,6.29,6.29,0,0,0-3.35-1.81c-1.22-.15-6.83,0-8.51,0-1.94,0-8.73-.29-10,.49-1,.63-1.3.93-2.06.43a15.55,15.55,0,0,0-2.49-.9c-7.44-.13-14.89,0-22.33,0a2.85,2.85,0,0,0-1.43.39,2.06,2.06,0,0,0-.81,1c-2,5.82-3.31,18.64-4.6,26.55a6.91,6.91,0,0,1-.21.73,1.27,1.27,0,0,0,.13.72c.22.53,0,.38.45.55,1.39.5,3.63.29,5.16.29.67,0,5.64.1,6.17,0,.94-.21,1.78-.69,1.88-1.73.31-3.1,3.23-22,5.1-22.61a2.41,2.41,0,0,1,1.55-.11c.75.18,1.36.59,1.31,1.43-.12,2.35-4.13,20.33-3.74,22.1a1.43,1.43,0,0,0,.86.91,4,4,0,0,0,1.71.14Zm54.15-27.91c-1.48,8.71-3.53,17.08-4.45,26-.2,2-2.55,1.93-4.1,1.93-2,0-4.43.06-6.45.07-1.15,0-2.69.31-3.22-.94-.72-1.69,4-24.34,4.77-28.16.18-.88,1.47-1.28,2.2-1.27H237a13.51,13.51,0,0,1,2.89.13c.94.31.91,1.16.72,2.26ZM315.1,84.64H337a8.43,8.43,0,0,0,5.65-2.22c1.64-2.19,4.22-12.55,3.5-15.15a4.86,4.86,0,0,0-4-3.84c-.57-.1-8.37,0-9.34,0h-1.59c-.77,0-1.42-.06-1.66-.76a1.86,1.86,0,0,1,1.19-2.39A2.49,2.49,0,0,1,332,60h12.52c1.4,0,2.76.2,3.46-1.24l.39-2.72c0-2-1.47-1.64-3.11-1.64H323.42a8.27,8.27,0,0,0-6.35,2.87c-1.59,2-4.06,15.25-1.36,17,2.1,1.35,3.22,1.34,5.66,1.33l7.85,0c.88,0,1.82.1,1.7,1.53S329.4,79,328.18,79H315.66c-2.05,0-3.19-.25-3.56,2.66a11.2,11.2,0,0,0-.21,1.42c0,1.75,2,1.52,3.21,1.52Zm-73.52,0h21.21c3,0,6.34-.13,8.41-2.74s5.88-23.33,3.59-25.86a5.47,5.47,0,0,0-4.43-1.65H247.28c-1.45,0-2.34.59-2.44,2.2-1,6.82-3.08,17.31-4.21,24.2-.19,1.31-1.07,3.58.95,3.85Zm18.65-24.77h0A2.72,2.72,0,0,1,262.46,63L260,77.69a2.72,2.72,0,0,1-3.11,2.23h0a2.72,2.72,0,0,1-2.23-3.11l2.42-14.7a2.72,2.72,0,0,1,3.11-2.23ZM307.32,88.3c-.17,1.6-3.28,1.55-4.36,1.55-3,0-6.78.35-8.47-2.64l-.4-1c-.38-1.43,2.26-13.44,2.37-15.78,0-1.71-3-1.44-3.64-.61-1.05,2-2.1,10.89-2.86,13.86a2.86,2.86,0,0,1-1.84,1c-3.05.07-6.55,0-9.72,0a1.94,1.94,0,0,1-1.59-.49c-.55-.48-.27-1.39-.23-1.79.22-2.34,3.92-23.27,4.49-24.41a5.11,5.11,0,0,1,2.25-2.33,6,6,0,0,1,.89-.51c4.44-1.72,17.59-.77,23-.76a5.41,5.41,0,0,1,4.58,2.33c1.72,2.78-3.77,25.65-4.43,31.62ZM296,59.42a2.21,2.21,0,1,0,2.51,2.19A2.36,2.36,0,0,0,296,59.42Z"/><path class="cls-5" d="M162.69,93.45v10.78h-2.27V93.45h-4.08v-2h10.61v2Zm4.07,4.26a8,8,0,0,0,1.38,4.93,4.69,4.69,0,0,0,4,1.8,5.34,5.34,0,0,0,4.33-1.82,7.4,7.4,0,0,0,1.52-4.91,7.19,7.19,0,0,0-1.46-4.81,5.23,5.23,0,0,0-4.22-1.71,4.85,4.85,0,0,0-4,1.89,7.22,7.22,0,0,0-1.5,4.63Zm2.36,0a5.85,5.85,0,0,1,.81-3.28,2.64,2.64,0,0,1,2.33-1.22q3.32,0,3.32,4.5a5.81,5.81,0,0,1-.9,3.5,3,3,0,0,1-2.6,1.2,2.44,2.44,0,0,1-2.21-1.23,6.62,6.62,0,0,1-.76-3.47Zm10.83-6.29h2.27v8.67a2.2,2.2,0,0,0,2.36,2.32,2.72,2.72,0,0,0,1.92-.63,2.25,2.25,0,0,0,.69-1.73V91.42h2.27v8.8a3.83,3.83,0,0,1-1.32,3.09,5.28,5.28,0,0,1-3.53,1.12,5,5,0,0,1-3.44-1.09,4,4,0,0,1-1.21-3.13V91.42Zm20.92.68L199.93,94a3.38,3.38,0,0,0-2.45-.75,3.17,3.17,0,0,0-2.62,1.34,5.4,5.4,0,0,0-1,3.39,5.12,5.12,0,0,0,.95,3.25,3.06,3.06,0,0,0,2.53,1.2,3.41,3.41,0,0,0,2.83-1.3l1.06,1.83a5.32,5.32,0,0,1-4.08,1.49,5.15,5.15,0,0,1-4.17-1.76,7.21,7.21,0,0,1-1.49-4.81,7,7,0,0,1,1.65-4.75,5.33,5.33,0,0,1,4.22-1.91,6.18,6.18,0,0,1,3.53.9Zm9.52,12.12V98.46H205.3v5.76H203V91.42h2.27v5h5.08v-5h2.25v12.8Zm22.21,0h-2.2l-1.33-6.89-2.57,7.07h-.8l-2.57-7.07-1.37,6.89h-2.2l2.58-12.8h1.2l2.77,8.63,2.69-8.63H230l2.61,12.8Zm1.4-12.8h2.27v8.67a2.2,2.2,0,0,0,2.36,2.32,2.72,2.72,0,0,0,1.92-.63,2.25,2.25,0,0,0,.69-1.73V91.42h2.27v8.8a3.83,3.83,0,0,1-1.32,3.09,5.28,5.28,0,0,1-3.53,1.12,5,5,0,0,1-3.44-1.09,4,4,0,0,1-1.21-3.13V91.42Zm12.13,12.8V91.42h2.27V102.2h5.78v2ZM259.9,93.45h4.26v-2H253.55v2h4.08v10.78h2.27V93.45Zm5.8,10.78V91.42H268v12.8Zm4.57-4.15V98h4.62v2.06Zm9.2-.56v4.72H277.2V91.43l2.66-.1a8.21,8.21,0,0,1,4.44.93,3.23,3.23,0,0,1,1.4,2.9q0,4.4-5.2,4.4c-.26,0-.6,0-1-.06Zm0-6.1v4.08a9,9,0,0,0,.91.06,3.94,3.94,0,0,0,2.28-.52,1.93,1.93,0,0,0,.72-1.68q0-2-3.21-2a5.19,5.19,0,0,0-.69,0Zm8.23-2H290v8.67a2.2,2.2,0,0,0,2.36,2.32,2.72,2.72,0,0,0,1.92-.63,2.25,2.25,0,0,0,.69-1.73V91.42h2.27v8.8a3.83,3.83,0,0,1-1.32,3.09,5.28,5.28,0,0,1-3.53,1.12,5,5,0,0,1-3.44-1.09,4,4,0,0,1-1.21-3.13V91.42Zm19.36,12.8-3.42-5.28-1.44-.06v5.34h-2.36V91.41l1.48-.07c.86,0,1.55-.07,2.07-.07q4.88,0,4.88,3.78a3.48,3.48,0,0,1-.67,2.08,3.65,3.65,0,0,1-1.69,1.32l3.78,5.76Zm-4.87-10.83V97c.42,0,.74.05,1,.05a4.14,4.14,0,0,0,2.09-.4A1.69,1.69,0,0,0,305.9,95a1.37,1.37,0,0,0-.71-1.32,5,5,0,0,0-2.23-.38,5.78,5.78,0,0,0-.77.05ZM313,99.5v4.72h-2.27V91.43l2.66-.1a8.2,8.2,0,0,1,4.44.93,3.23,3.23,0,0,1,1.41,2.9q0,4.4-5.2,4.4c-.26,0-.6,0-1-.06Zm0-6.1v4.08a9,9,0,0,0,.91.06,3.94,3.94,0,0,0,2.28-.52,1.93,1.93,0,0,0,.72-1.68q0-2-3.21-2a5.21,5.21,0,0,0-.69,0Zm7.62,4.31a7.22,7.22,0,0,1,1.5-4.63,4.85,4.85,0,0,1,4-1.89,5.24,5.24,0,0,1,4.22,1.71,7.19,7.19,0,0,1,1.46,4.81,7.39,7.39,0,0,1-1.52,4.91,5.34,5.34,0,0,1-4.33,1.82,4.69,4.69,0,0,1-4-1.8,8,8,0,0,1-1.38-4.93Zm2.36,0a6.62,6.62,0,0,0,.76,3.47,2.44,2.44,0,0,0,2.21,1.23,3,3,0,0,0,2.6-1.2,5.81,5.81,0,0,0,.89-3.5q0-4.5-3.32-4.5a2.64,2.64,0,0,0-2.33,1.22,5.85,5.85,0,0,0-.81,3.28Zm10.24,5.8.84-2a4.6,4.6,0,0,0,2.65.95q2,0,2-1.4a2,2,0,0,0-.47-1.25,6.07,6.07,0,0,0-1.95-1.33,9.29,9.29,0,0,1-2-1.21,3.22,3.22,0,0,1-.79-1.13,3.69,3.69,0,0,1-.28-1.45,3.17,3.17,0,0,1,1.09-2.46,4,4,0,0,1,2.79-1,5.2,5.2,0,0,1,3.26.83l-.69,2a4.27,4.27,0,0,0-2.53-.86,1.69,1.69,0,0,0-1.22.42,1.42,1.42,0,0,0-.43,1.08q0,1.1,2.44,2.29a7.87,7.87,0,0,1,1.86,1.16,3.53,3.53,0,0,1,.87,1.23,4,4,0,0,1,.3,1.57,3.15,3.15,0,0,1-1.23,2.56,5,5,0,0,1-3.29,1,5.85,5.85,0,0,1-3.23-.93Zm12-10.06v3h4.15v1.93h-4.15v3.83h5.82v2H343V91.42h8.09v2ZM169.22,108.26l-.94,1.88a3.39,3.39,0,0,0-2.45-.75,3.17,3.17,0,0,0-2.63,1.34,5.41,5.41,0,0,0-1,3.39,5.12,5.12,0,0,0,.95,3.26,3.06,3.06,0,0,0,2.53,1.2,3.41,3.41,0,0,0,2.83-1.3l1.06,1.83a5.32,5.32,0,0,1-4.08,1.49,5.16,5.16,0,0,1-4.17-1.76,7.22,7.22,0,0,1-1.49-4.81,7,7,0,0,1,1.65-4.75,5.33,5.33,0,0,1,4.22-1.91,6.19,6.19,0,0,1,3.53.9Zm1.55,5.6a7.22,7.22,0,0,1,1.5-4.63,4.85,4.85,0,0,1,4-1.89,5.24,5.24,0,0,1,4.22,1.71,7.19,7.19,0,0,1,1.46,4.81,7.39,7.39,0,0,1-1.52,4.91,5.34,5.34,0,0,1-4.33,1.82,4.69,4.69,0,0,1-4-1.8,8,8,0,0,1-1.38-4.93Zm2.36,0a6.61,6.61,0,0,0,.76,3.47,2.44,2.44,0,0,0,2.21,1.23,3,3,0,0,0,2.6-1.2,5.81,5.81,0,0,0,.89-3.5q0-4.5-3.32-4.5a2.64,2.64,0,0,0-2.33,1.22,5.84,5.84,0,0,0-.81,3.28Zm10.22,0a7.22,7.22,0,0,1,1.5-4.63,4.85,4.85,0,0,1,4-1.89,5.24,5.24,0,0,1,4.22,1.71,7.19,7.19,0,0,1,1.46,4.81,7.4,7.4,0,0,1-1.52,4.91,5.34,5.34,0,0,1-4.33,1.82,4.69,4.69,0,0,1-4-1.8,8,8,0,0,1-1.38-4.93Zm2.36,0a6.61,6.61,0,0,0,.76,3.47,2.44,2.44,0,0,0,2.21,1.23,3,3,0,0,0,2.6-1.2,5.81,5.81,0,0,0,.9-3.5q0-4.5-3.32-4.5a2.64,2.64,0,0,0-2.33,1.22,5.84,5.84,0,0,0-.81,3.28Zm13.1,1.8v4.72h-2.27V107.59l2.66-.1a8.21,8.21,0,0,1,4.44.93,3.23,3.23,0,0,1,1.41,2.9q0,4.4-5.2,4.4c-.26,0-.6,0-1-.06Zm0-6.1v4.08a9,9,0,0,0,.91.06,3.94,3.94,0,0,0,2.28-.52,1.93,1.93,0,0,0,.72-1.68q0-2-3.21-2a5.21,5.21,0,0,0-.69,0Zm10.5,0v3h4.15v1.93h-4.15v3.83h5.82v2h-8.09v-12.8h8.09v2Zm15.14,10.78L221,115.1,219.6,115v5.34h-2.36V107.57l1.48-.07c.86,0,1.55-.07,2.07-.07q4.88,0,4.88,3.78a3.48,3.48,0,0,1-.67,2.08,3.64,3.64,0,0,1-1.69,1.32l3.78,5.76Zm-4.87-10.83v3.56c.42,0,.74.05,1,.05a4.14,4.14,0,0,0,2.09-.4,1.69,1.69,0,0,0,.66-1.57,1.37,1.37,0,0,0-.71-1.32,5,5,0,0,0-2.23-.38,5.82,5.82,0,0,0-.77.05Zm16.07,10.83h2.51l-5.16-13h-1l-5.12,13h2.52l.9-2.6h4.41l.94,2.6Zm-3.15-9.06,1.55,4.72H231l1.55-4.72ZM243,109.6v10.78h-2.27V109.6h-4.08v-2h10.61v2Zm5.8,10.78v-12.8h2.27v12.8Zm9.71.18h-1.25l-4.8-13H255l3,8.65,3.12-8.65h2.45l-5,13Zm8.62-11v3h4.15v1.93h-4.15v3.83H273v2h-8.09v-12.8H273v2Zm12.71,10.06.84-2a4.6,4.6,0,0,0,2.65.95q2,0,2-1.4a2,2,0,0,0-.47-1.25,6.07,6.07,0,0,0-1.95-1.33,9.28,9.28,0,0,1-2-1.21,3.22,3.22,0,0,1-.79-1.13,3.7,3.7,0,0,1-.28-1.45,3.16,3.16,0,0,1,1.09-2.46,4,4,0,0,1,2.79-1,5.2,5.2,0,0,1,3.26.83l-.69,2a4.27,4.27,0,0,0-2.53-.86,1.69,1.69,0,0,0-1.22.42,1.42,1.42,0,0,0-.43,1.08q0,1.1,2.44,2.29a7.87,7.87,0,0,1,1.86,1.16,3.53,3.53,0,0,1,.87,1.23,4,4,0,0,1,.3,1.57,3.16,3.16,0,0,1-1.23,2.56,5,5,0,0,1-3.29,1,5.85,5.85,0,0,1-3.23-.93Zm9.13-5.8a7.22,7.22,0,0,1,1.5-4.63,4.85,4.85,0,0,1,4-1.89,5.24,5.24,0,0,1,4.22,1.71,7.19,7.19,0,0,1,1.46,4.81,7.4,7.4,0,0,1-1.52,4.91,5.34,5.34,0,0,1-4.33,1.82,4.69,4.69,0,0,1-4-1.8,8,8,0,0,1-1.38-4.93Zm2.36,0a6.62,6.62,0,0,0,.76,3.47,2.44,2.44,0,0,0,2.21,1.23,3,3,0,0,0,2.6-1.2,5.8,5.8,0,0,0,.9-3.5q0-4.5-3.32-4.5a2.64,2.64,0,0,0-2.33,1.22,5.85,5.85,0,0,0-.81,3.28Zm19.62-5.6-.94,1.88a3.38,3.38,0,0,0-2.45-.75,3.17,3.17,0,0,0-2.63,1.34,5.41,5.41,0,0,0-1,3.39,5.12,5.12,0,0,0,.95,3.26,3.06,3.06,0,0,0,2.53,1.2,3.41,3.41,0,0,0,2.83-1.3l1.06,1.83a5.32,5.32,0,0,1-4.08,1.49,5.16,5.16,0,0,1-4.17-1.76,7.22,7.22,0,0,1-1.49-4.81,7,7,0,0,1,1.65-4.75,5.33,5.33,0,0,1,4.22-1.91,6.19,6.19,0,0,1,3.53.9Zm2.22,12.12v-12.8h2.27v12.8Zm7.2-10.78v3h4.15v1.93h-4.15v3.83h5.82v2h-8.09v-12.8h8.09v2Zm13.12,0v10.78h-2.27V109.6h-4.08v-2h10.61v2Zm11.08,5.53v5.25h-2.27v-5.25L338,107.58h2.42l3,5.46,3-5.46h2.4Z"/></g></g></svg>