<svg xmlns="http://www.w3.org/2000/svg" viewBox="0 0 800 800"><defs><style>.cls-1,.cls-7{fill:#d5305d;}.cls-2{fill:#f6f6f6;}.cls-15,.cls-3,.cls-7{font-size:24px;letter-spacing:-0.05em;}.cls-3{fill:#fff;}.cls-15,.cls-20,.cls-21,.cls-3,.cls-7{font-family:Moon-Bold, Moon;font-weight:700;}.cls-4{fill:#f7a600;}.cls-20,.cls-5{fill:#a0b829;}.cls-14,.cls-19,.cls-6{fill:none;stroke-miterlimit:10;stroke-width:2px;}.cls-6{stroke:#d5305d;}.cls-8{font-size:14px;font-family:NexaBold, Nexa Bold;}.cls-9{letter-spacing:-0.14em;}.cls-10{letter-spacing:0.02em;}.cls-11{letter-spacing:-0.02em;}.cls-12{letter-spacing:0.02em;}.cls-13{letter-spacing:0.01em;}.cls-14{stroke:#f7a600;}.cls-15{fill:#f8ac00;}.cls-16{letter-spacing:-0.01em;}.cls-17{letter-spacing:-0.01em;}.cls-18{letter-spacing:0.01em;}.cls-19{stroke:#a0b829;}.cls-20{font-size:28px;letter-spacing:-0.05em;}.cls-21{font-size:36px;fill:#1bb14c;letter-spacing:-0.05em;}</style></defs><title>MIDAS Mission + Vision</title><g id="Objects"><path class="cls-1" d="M283.31,449.94c-10.79,0-19.56-7.82-19.56-17.44,0-5,4.93-15.07,5-15.17,1.42-2.9,1.5-5.71.21-7.94s-3.89-3.71-7.28-4.06v-.09c-.25,0-.79,0-1.57,0l-46.74,0-8.55,0V345c0-.35,0-.65,0-.9h0c.32-4.85,2.86-7.87,6.63-7.87a9.11,9.11,0,0,1,4,1c.42.21,10.41,5.08,15.61,5.08,10.16,0,18.43-9.23,18.43-20.57s-8.27-20.57-18.43-20.57c-5.2,0-15.19,4.87-15.61,5.08a9.1,9.1,0,0,1-4,1c-3.77,0-6.31-3-6.63-7.87V242.33h55.11l1.13,0c3.71-.24,6.52-1.7,7.91-4.11,1.29-2.22,1.21-5-.21-7.94,0-.1-5-10.21-5-15.17,0-9.61,8.78-17.43,19.57-17.43s19.56,7.82,19.56,17.43c0,5-4.92,15.07-5,15.17-1.42,2.9-1.5,5.72-.21,7.94s3.9,3.71,7.3,4.06v.09c.26,0,.79,0,1.56,0h49.63l.5,0H367v57.09c.35,5.37,3.34,8.83,7.63,8.83a10.08,10.08,0,0,0,4.43-1.13c.1,0,10.2-5,15.17-5,9.61,0,17.43,8.78,17.43,19.57s-7.82,19.57-17.43,19.57c-5,0-15.07-4.93-15.17-5a10.09,10.09,0,0,0-4.43-1.12c-4.13,0-7.06,3.2-7.58,8.21h-.08c0,.3,0,.82,0,1.55v60.36l-11.92,0h-23.2l-.49,0-24.62,0H305.6c-3.72.24-6.52,1.71-7.92,4.12-1.29,2.22-1.21,5,.21,7.94,0,.1,5,10.2,5,15.17C302.88,442.11,294.1,449.94,283.31,449.94Z"/><path class="cls-2" d="M283.31,198.16c10.51,0,19.06,7.59,19.06,16.93,0,4.85-4.87,14.85-4.92,15-1.5,3.05-1.57,6-.2,8.41s4.15,4,7.74,4.32v.08c.25,0,.78,0,1.54,0h49.13v0h10.78v56.65c.37,5.63,3.56,9.27,8.12,9.27a10.57,10.57,0,0,0,4.65-1.18c.1,0,10.1-4.92,14.95-4.92,9.34,0,16.93,8.55,16.93,19.07s-7.6,19.07-16.93,19.07c-4.85,0-14.85-4.88-14.95-4.93a10.58,10.58,0,0,0-4.65-1.17c-4.43,0-7.56,3.42-8.09,8.75h-.08c0,.27,0,.78,0,1.51v59.86l-11.42,0H332.35v0h-1l-24.63,0h-1.18c-3.86.25-6.81,1.8-8.29,4.37-1.37,2.37-1.3,5.36.19,8.41,0,.1,4.93,10.1,4.93,14.95,0,9.34-8.55,16.94-19.07,16.94s-19.06-7.6-19.06-16.94c0-4.85,4.87-14.85,4.92-14.95,1.5-3.05,1.57-6,.19-8.41s-4.14-4-7.72-4.32v-.09c-.25,0-.78,0-1.56,0l-46.74,0h-8.05V345c0-.33,0-.63,0-.87h0c.3-4.57,2.65-7.4,6.13-7.4a8.61,8.61,0,0,1,3.77,1c.43.21,10.52,5.13,15.83,5.13,10.44,0,18.93-9.45,18.93-21.07s-8.49-21.07-18.93-21.07c-5.31,0-15.4,4.92-15.83,5.13a8.6,8.6,0,0,1-3.77,1c-3.48,0-5.82-2.82-6.13-7.37V242.84H259.9l1.12,0h.05c3.86-.25,6.8-1.8,8.29-4.36,1.37-2.37,1.31-5.36-.19-8.41,0-.1-4.93-10.1-4.93-15,0-9.34,8.55-16.93,19.07-16.93m0-1c-11.08,0-20.07,8-20.07,17.93,0,5.14,5,15.39,5,15.39,2.93,6-.34,10.89-7.26,11.34l-1.12,0H203.35v0h.92v57.58c.34,5.2,3.2,8.33,7.13,8.33a9.6,9.6,0,0,0,4.21-1.08s10.25-5,15.39-5c9.9,0,17.93,9,17.93,20.07s-8,20.07-17.93,20.07c-5.14,0-15.39-5-15.39-5a9.61,9.61,0,0,0-4.21-1.07c-3.93,0-6.79,3.13-7.13,8.34,0-.28,0-.47,0-.61,0,.27,0,.8,0,1.55v60.83l9.05,0,46.74,0c.8,0,1.33,0,1.59,0l-.66,0c6.93.46,10.19,5.38,7.26,11.34,0,0-5,10.25-5,15.39,0,9.91,9,17.94,20.06,17.94s20.07-8,20.07-17.94c0-5.14-5-15.39-5-15.39-2.92-6,.34-10.88,7.26-11.34h1.12l24.62,0v0H355l12.42,0V345c0-.77,0-1.3,0-1.57v0c0,.14,0,.34,0,.63.34-5.2,3.2-8.34,7.13-8.34a9.61,9.61,0,0,1,4.21,1.07s10.25,5,15.39,5c9.9,0,17.93-9,17.93-20.07s-8-20.07-17.93-20.07c-5.14,0-15.39,5-15.39,5a9.6,9.6,0,0,1-4.21,1.08c-3.93,0-6.79-3.13-7.13-8.33V241.86H356.68v0H306.55c-.78,0-1.31,0-1.57,0h0l.64,0c-6.93-.45-10.19-5.37-7.26-11.34,0,0,5-10.25,5-15.39,0-9.91-9-17.93-20.06-17.93ZM204.26,343.38v0Z"/><text class="cls-3" transform="translate(247.93 288.63)">VISION</text><path class="cls-4" d="M499.17,449.94c-10.79,0-19.56-7.82-19.56-17.44,0-5,4.93-15.07,5-15.17,1.42-2.9,1.5-5.71.21-7.94s-3.89-3.71-7.28-4.06v-.09c-.25,0-.79,0-1.57,0l-46.74,0-8.55,0V345c0-.35,0-.65,0-.9h0c.32-4.85,2.86-7.87,6.63-7.87a9.11,9.11,0,0,1,4,1c.42.21,10.41,5.08,15.61,5.08,10.16,0,18.43-9.23,18.43-20.57s-8.27-20.57-18.43-20.57c-5.2,0-15.19,4.87-15.61,5.08a9.1,9.1,0,0,1-4,1c-3.77,0-6.31-3-6.63-7.87V242.34h100.2v0c.25,0,.79,0,1.57,0H572l.5,0H581v57.08c-.31,4.82-2.85,7.84-6.63,7.84a9.09,9.09,0,0,1-4-1c-.42-.21-10.41-5.08-15.61-5.08-10.16,0-18.43,9.23-18.43,20.57s8.27,20.57,18.43,20.57c5.2,0,15.19-4.88,15.61-5.08a9.1,9.1,0,0,1,4-1c3.78,0,6.32,3,6.63,7.87h0c0,.26,0,.56,0,.9v60.35l-10.09,0H547.7l-.49,0-24.62,0h-1.13c-3.72.24-6.52,1.71-7.91,4.12-1.29,2.22-1.21,5,.21,7.94,0,.1,5,10.2,5,15.17C518.74,442.12,510,449.94,499.17,449.94Z"/><path class="cls-2" d="M571.54,242.84v0h8.95V299.4c-.3,4.55-2.65,7.37-6.13,7.37a8.6,8.6,0,0,1-3.77-1c-.43-.21-10.52-5.13-15.83-5.13-10.44,0-18.93,9.45-18.93,21.07s8.49,21.07,18.93,21.07c5.31,0,15.4-4.92,15.83-5.13a8.61,8.61,0,0,1,3.77-1c3.49,0,5.84,2.84,6.13,7.4h0c0,.24,0,.53,0,.87v59.85H548.21v0h-1l-24.63,0h-1.18c-3.86.25-6.81,1.8-8.29,4.37-1.37,2.37-1.3,5.36.19,8.41,0,.1,4.93,10.1,4.93,15,0,9.34-8.55,16.94-19.07,16.94s-19.06-7.6-19.06-16.94c0-4.85,4.87-14.85,4.92-15,1.5-3,1.57-6,.19-8.41s-4.14-4-7.72-4.32v-.09c-.25,0-.78,0-1.56,0l-46.75,0h-8.05V345c0-.33,0-.63,0-.87h0c.3-4.57,2.65-7.4,6.13-7.4a8.62,8.62,0,0,1,3.77,1c.43.21,10.52,5.13,15.83,5.13,10.44,0,18.93-9.45,18.93-21.07s-8.49-21.07-18.93-21.07c-5.32,0-15.4,4.92-15.83,5.13a8.6,8.6,0,0,1-3.77,1c-3.48,0-5.82-2.82-6.13-7.37V242.84h99.71v0c.25,0,.78,0,1.56,0h49.13m1-1H522.41c-.79,0-1.33,0-1.59,0h0l.43,0h-102v0h.92v57.58c.34,5.2,3.2,8.33,7.13,8.33a9.6,9.6,0,0,0,4.21-1.08s10.25-5,15.39-5c9.9,0,17.93,9,17.93,20.07s-8,20.07-17.93,20.07c-5.14,0-15.39-5-15.39-5a9.61,9.61,0,0,0-4.21-1.07c-3.93,0-6.79,3.13-7.13,8.34,0-.27,0-.46,0-.6,0,.28,0,.8,0,1.54v60.83l9.05,0,46.74,0c.8,0,1.33,0,1.59,0l-.66,0c6.93.45,10.19,5.38,7.26,11.34,0,0-5,10.25-5,15.39,0,9.91,9,17.94,20.06,17.94s20.07-8,20.07-17.94c0-5.14-5-15.39-5-15.39-2.92-6,.34-10.88,7.26-11.34h1.12l24.62,0v0h23.68l10.59,0V345c0-.79,0-1.34,0-1.59,0,.14,0,.35,0,.66-.34-5.2-3.2-8.34-7.13-8.34a9.6,9.6,0,0,0-4.21,1.07s-10.25,5-15.39,5c-9.9,0-17.93-9-17.93-20.07s8-20.07,17.93-20.07c5.14,0,15.39,5,15.39,5a9.6,9.6,0,0,0,4.21,1.08c3.93,0,6.79-3.13,7.13-8.33V241.86h-8.95v0ZM420.12,343.38s0,0,0,.06,0,0,0-.06Z"/><text class="cls-3" transform="translate(454.49 287.38)">MIsSION</text><path class="cls-5" d="M390.87,653.92c-10.79,0-19.57-7.82-19.57-17.43,0-5,4.93-15.07,5-15.17,1.42-2.9,1.5-5.72.21-7.95s-3.92-3.72-7.33-4.07v-.08l-1.52,0H307.28c0-2.23,0-11.14,0-11.92v-23.2l0-.49,0-24.62V547.9c-.35-5.37-3.35-8.83-7.63-8.83a10.09,10.09,0,0,0-4.43,1.12c-.1,0-10.2,5-15.17,5-9.61,0-17.44-8.78-17.44-19.57S270.5,506,280.11,506c5,0,15.07,4.93,15.17,5a10.08,10.08,0,0,0,4.43,1.13c4.12,0,7-3.2,7.58-8.2h.09c0-.33,0-.84,0-1.58l0-46.74,0-8.55h61.24v0c3.34.22,5.86,1.5,7.09,3.62,1.12,1.93,1,4.42-.24,7-.21.42-5.08,10.41-5.08,15.61,0,10.16,9.23,18.43,20.57,18.43s20.57-8.27,20.57-18.43c0-5.2-4.87-15.19-5.08-15.61-1.27-2.59-1.36-5.08-.24-7,1.22-2.12,3.74-3.4,7.08-3.62h57.07v55.11l0,1.13c.35,5.37,3.34,8.83,7.62,8.83a10.09,10.09,0,0,0,4.43-1.12c.1,0,10.21-5,15.17-5,9.61,0,17.43,8.78,17.43,19.57s-7.82,19.56-17.43,19.56c-5,0-15.07-4.92-15.17-5a10.07,10.07,0,0,0-4.43-1.13c-4.13,0-7.07,3.22-7.58,8.26h-.08c0,.27,0,.78,0,1.51v49.63l0,.5v10.28H413.17c-3.72.24-6.52,1.7-7.91,4.12-1.29,2.22-1.21,5,.21,7.94,0,.1,5,10.2,5,15.17C410.44,646.1,401.66,653.92,390.87,653.92Z"/><path class="cls-2" d="M368.51,447.57v0c3.17.21,5.55,1.4,6.69,3.37,1,1.78.94,4.1-.25,6.53-.21.43-5.13,10.52-5.13,15.83,0,10.44,9.45,18.93,21.07,18.93s21.07-8.49,21.07-18.93c0-5.32-4.92-15.4-5.13-15.83-1.2-2.43-1.29-4.75-.26-6.53,1.13-2,3.5-3.16,6.66-3.37h56.57V502.2l0,1.17c.36,5.63,3.55,9.27,8.12,9.27a10.56,10.56,0,0,0,4.65-1.18c.1,0,10.1-4.93,15-4.93,9.34,0,16.93,8.55,16.93,19.07s-7.59,19.06-16.93,19.06c-4.85,0-14.85-4.87-15-4.92a10.58,10.58,0,0,0-4.65-1.18c-4.41,0-7.53,3.39-8.07,8.7h-.09v.08c0,.27,0,.78,0,1.5V598h0v10.78H413.11c-3.86.25-6.8,1.8-8.29,4.36-1.37,2.38-1.3,5.36.2,8.42,0,.1,4.92,10.09,4.92,15,0,9.34-8.55,16.93-19.07,16.93s-19.07-7.6-19.07-16.93c0-4.85,4.88-14.85,4.93-15,1.5-3.05,1.56-6,.19-8.42s-4.13-4-7.71-4.31v-.08h-.06l-1.51,0H307.78c0-2.82,0-10.69,0-11.42V574.65h0v-1l0-24.63v-1.18c-.37-5.63-3.56-9.27-8.13-9.27a10.57,10.57,0,0,0-4.65,1.17c-.1,0-10.1,4.93-14.95,4.93-9.34,0-16.94-8.55-16.94-19.07s7.6-19.06,16.94-19.06c4.85,0,14.85,4.88,14.95,4.92a10.57,10.57,0,0,0,4.65,1.18c4.41,0,7.54-3.4,8.08-8.7h.09v-.05c0-.27,0-.78,0-1.51l0-46.75c0-2.38,0-5.89,0-8.05h60.7m102.27-1.92h0v.92H413.17c-6.92.45-10.19,5.38-7.26,11.34,0,0,5,10.25,5,15.39,0,9.9-9,17.93-20.07,17.93s-20.07-8-20.07-17.93c0-5.14,5-15.39,5-15.39,2.92-6-.34-10.89-7.26-11.34l.63,0c-.27,0-.8,0-1.57,0H306.81c0,1.89,0,6.26,0,9.05l0,46.74c0,.8,0,1.33,0,1.59,0-.13,0-.34,0-.66-.34,5.2-3.2,8.34-7.13,8.34a9.6,9.6,0,0,1-4.21-1.07s-10.25-5-15.39-5c-9.91,0-17.94,9-17.94,20.06s8,20.07,17.94,20.07c5.14,0,15.39-5,15.39-5a9.59,9.59,0,0,1,4.21-1.07c3.93,0,6.79,3.13,7.13,8.34V549l0,24.62h0v23.68c0,.89,0,12.42,0,12.42h60.86l1.54,0h0l-.6,0c6.93.45,10.19,5.38,7.26,11.34,0,0-5,10.25-5,15.39,0,9.9,9,17.93,20.07,17.93s20.07-8,20.07-17.93c0-5.14-5-15.39-5-15.39-2.93-6,.33-10.89,7.26-11.34h57.58V599h0V548.84c0-.73,0-1.25,0-1.52,0,0,0,0,0-.07s0,0,0,.07,0,.33,0,.59c.34-5.2,3.2-8.34,7.12-8.34a9.6,9.6,0,0,1,4.21,1.08s10.25,5,15.39,5c9.91,0,17.93-9,17.93-20.06s-8-20.07-17.93-20.07c-5.14,0-15.39,5-15.39,5a9.61,9.61,0,0,1-4.21,1.07c-3.93,0-6.79-3.13-7.12-8.33l0-1.12V445.65Zm-101.54.9h0Z"/><text class="cls-3" transform="translate(358.75 541.79)">CORE <tspan x="-9.8" y="28.8">VALUES</tspan></text><polyline class="cls-6" points="190.05 333.29 81.71 333.29 81.71 128.29 102.71 128.29"/><circle class="cls-1" cx="190.05" cy="333.29" r="4.67"/><circle class="cls-1" cx="103.05" cy="128.29" r="4.67"/><text class="cls-7" transform="translate(118.91 136.75)">OUR VISION</text><text class="cls-8" transform="translate(118.91 151.74)"><tspan class="cls-9">T</tspan><tspan x="6.72" y="0">o be a leading Multi-Purpose </tspan><tspan class="cls-10" x="0" y="16.8">C</tspan><tspan x="9.53" y="16.8">ooper</tspan><tspan class="cls-11" x="48.59" y="16.8">a</tspan><tspan x="56.85" y="16.8">tive </tspan><tspan class="cls-12" x="84.66" y="16.8">S</tspan><tspan x="94.19" y="16.8">oci</tspan><tspan class="cls-11" x="112.15" y="16.8">e</tspan><tspan class="cls-13" x="120.02" y="16.8">t</tspan><tspan x="125.76" y="16.8">y in Nigeria.</tspan></text><polyline class="cls-14" points="493.39 229 493.39 175 594.39 175"/><circle class="cls-4" cx="493.39" cy="229" r="4.67"/><circle class="cls-4" cx="594.39" cy="175" r="4.67"/><text class="cls-15" transform="translate(606.06 183.13)">OUR MISSION</text><text class="cls-8" transform="translate(606.06 197.29)"><tspan class="cls-9">T</tspan><tspan x="6.72" y="0">o </tspan><tspan class="cls-16" x="17.58" y="0">e</tspan><tspan x="25.61" y="0">x</tspan><tspan class="cls-12" x="33.05" y="0">c</tspan><tspan x="40.01" y="0">eed m</tspan><tspan class="cls-17" x="80.36" y="0">e</tspan><tspan x="88.38" y="0">mber’s </tspan><tspan class="cls-17" x="0" y="16.8">e</tspan><tspan x="8.02" y="16.8">xpect</tspan><tspan class="cls-11" x="44.65" y="16.8">a</tspan><tspan x="52.91" y="16.8">t</tspan><tspan class="cls-13" x="58.49" y="16.8">i</tspan><tspan x="61.89" y="16.8">on as a safe, </tspan><tspan x="0" y="33.6">sustain</tspan><tspan class="cls-17" x="47.78" y="33.6">a</tspan><tspan x="56.2" y="33.6">ble, and leading </tspan><tspan class="cls-18" x="0" y="50.4">c</tspan><tspan x="6.82" y="50.4">ooper</tspan><tspan class="cls-11" x="45.88" y="50.4">a</tspan><tspan x="54.14" y="50.4">tive.</tspan></text><polyline class="cls-19" points="356.08 626.1 356.08 681.69 422.21 681.69"/><circle class="cls-5" cx="422.21" cy="681.69" r="4.67"/><circle class="cls-5" cx="356.08" cy="626.1" r="4.67"/><text class="cls-20" transform="translate(437.54 684.59)">OUR VALUES</text><text class="cls-8" transform="translate(437.54 699.79)">- <tspan class="cls-11" x="9.24" y="0">P</tspan><tspan x="18.41" y="0">rofess</tspan><tspan class="cls-13" x="60.07" y="0">i</tspan><tspan x="63.48" y="0">onalism</tspan><tspan x="0" y="16.8">- I</tspan><tspan class="cls-11" x="12.82" y="16.8">n</tspan><tspan x="20.79" y="16.8">tegri</tspan><tspan class="cls-13" x="51.59" y="16.8">t</tspan><tspan x="57.33" y="16.8">y</tspan><tspan x="0" y="33.6">- Cre</tspan><tspan class="cls-11" x="32.72" y="33.6">a</tspan><tspan x="40.98" y="33.6">tivi</tspan><tspan class="cls-13" x="61.04" y="33.6">t</tspan><tspan x="66.78" y="33.6">y</tspan><tspan x="0" y="50.4">- </tspan><tspan class="cls-10" x="9.24" y="50.4">E</tspan><tspan x="18.27" y="50.4">x</tspan><tspan class="cls-12" x="25.72" y="50.4">c</tspan><tspan x="32.68" y="50.4">ellen</tspan><tspan class="cls-12" x="63.64" y="50.4">c</tspan><tspan x="70.6" y="50.4">e</tspan></text><text class="cls-21" transform="translate(144.15 82.19)">MISSION, VISION &amp; CORE VALUES</text></g></svg>